<svg width="256" height="256" viewBox="0 0 256 256" xmlns="http://www.w3.org/2000/svg">
  <path d="M128,0L146.0212,14.21832L167.554,6.26476L180.2996,25.35604L203.2364,24.44584L209.4588,46.5412L231.554,52.7636L230.644,75.7004L249.7352,88.446L241.7816,109.9788L256,128L241.7816,146.0212L249.7352,167.554L230.644,180.2996L231.554,203.2364L209.4588,209.4588L203.2364,231.554L180.2996,230.644L167.554,249.7352L146.0212,241.7816L128,256L109.9788,241.7816L88.446,249.7352L75.7004,230.644L52.7636,231.554L46.5412,209.4588L24.44584,203.2364L25.35604,180.2996L6.26476,167.554L14.21832,146.0212L0,128L14.21832,109.9788L6.26476,88.446L25.35604,75.7004L24.44584,52.7636L46.5412,46.5412L52.7636,24.44584L75.7004,25.35604L88.446,6.26476L109.9788,14.21832L128,0Z" fill="#00ffe0" stroke="none" stroke-width="1"/>
</svg>
